<mxfile host="app.diagrams.net" modified="2023-06-17T08:00:18.479Z" agent="Mozilla/5.0 (Windows NT 10.0; Win64; x64) AppleWebKit/537.36 (KHTML, like Gecko) Chrome/112.0.0.0 Safari/537.36 OPR/98.0.0.0 (Edition Yx GX)" etag="Z_100tsoXhUUVlWOQ24i" version="21.3.8" type="github">
  <diagram name="Страница 1" id="rLTvSM89UdcqZ1b2WMdA">
    <mxGraphModel dx="839" dy="477" grid="1" gridSize="10" guides="1" tooltips="1" connect="1" arrows="1" fold="1" page="1" pageScale="1" pageWidth="827" pageHeight="1169" math="0" shadow="0">
      <root>
        <mxCell id="0" />
        <mxCell id="1" parent="0" />
        <mxCell id="CdlXuI5yFP7o-QaMCslE-4" value="" style="edgeStyle=orthogonalEdgeStyle;rounded=0;orthogonalLoop=1;jettySize=auto;html=1;entryX=0;entryY=0.25;entryDx=0;entryDy=0;exitX=1;exitY=0.3333333333333333;exitDx=0;exitDy=0;exitPerimeter=0;" edge="1" parent="1" source="CdlXuI5yFP7o-QaMCslE-1" target="CdlXuI5yFP7o-QaMCslE-3">
          <mxGeometry relative="1" as="geometry">
            <mxPoint x="90" y="231" as="sourcePoint" />
          </mxGeometry>
        </mxCell>
        <mxCell id="CdlXuI5yFP7o-QaMCslE-7" value="1)Создать задачу&lt;br&gt;2)Подтвердить статус задачи&lt;br&gt;3)Воспользоваться мессенджером" style="edgeLabel;html=1;align=center;verticalAlign=middle;resizable=0;points=[];" vertex="1" connectable="0" parent="CdlXuI5yFP7o-QaMCslE-4">
          <mxGeometry relative="1" as="geometry">
            <mxPoint y="-47" as="offset" />
          </mxGeometry>
        </mxCell>
        <mxCell id="CdlXuI5yFP7o-QaMCslE-1" value="Начальник" style="shape=umlActor;verticalLabelPosition=bottom;verticalAlign=top;html=1;outlineConnect=0;" vertex="1" parent="1">
          <mxGeometry x="50" y="200" width="30" height="60" as="geometry" />
        </mxCell>
        <mxCell id="CdlXuI5yFP7o-QaMCslE-6" value="" style="edgeStyle=orthogonalEdgeStyle;rounded=0;orthogonalLoop=1;jettySize=auto;html=1;entryX=1;entryY=0.25;entryDx=0;entryDy=0;" edge="1" parent="1" target="CdlXuI5yFP7o-QaMCslE-5">
          <mxGeometry relative="1" as="geometry">
            <mxPoint x="760" y="220" as="sourcePoint" />
            <mxPoint x="640" y="230" as="targetPoint" />
            <Array as="points" />
          </mxGeometry>
        </mxCell>
        <mxCell id="CdlXuI5yFP7o-QaMCslE-9" value="1)Создать задачу&lt;br style=&quot;border-color: var(--border-color);&quot;&gt;2)Подтвердить статус задачи&lt;br style=&quot;border-color: var(--border-color);&quot;&gt;3)Воспользоваться мессенджером" style="edgeLabel;html=1;align=center;verticalAlign=middle;resizable=0;points=[];" vertex="1" connectable="0" parent="CdlXuI5yFP7o-QaMCslE-6">
          <mxGeometry relative="1" as="geometry">
            <mxPoint y="-47" as="offset" />
          </mxGeometry>
        </mxCell>
        <mxCell id="CdlXuI5yFP7o-QaMCslE-2" value="Подчинённый" style="shape=umlActor;verticalLabelPosition=bottom;verticalAlign=top;html=1;outlineConnect=0;" vertex="1" parent="1">
          <mxGeometry x="760" y="200" width="30" height="60" as="geometry" />
        </mxCell>
        <mxCell id="CdlXuI5yFP7o-QaMCslE-3" value="Интерфейс" style="rounded=1;whiteSpace=wrap;html=1;" vertex="1" parent="1">
          <mxGeometry x="240" y="210" width="70" height="40" as="geometry" />
        </mxCell>
        <mxCell id="CdlXuI5yFP7o-QaMCslE-5" value="Интерфейс" style="rounded=1;whiteSpace=wrap;html=1;" vertex="1" parent="1">
          <mxGeometry x="550" y="210" width="70" height="40" as="geometry" />
        </mxCell>
        <mxCell id="CdlXuI5yFP7o-QaMCslE-10" value="" style="endArrow=classic;html=1;rounded=0;exitX=1;exitY=0.75;exitDx=0;exitDy=0;" edge="1" parent="1" source="CdlXuI5yFP7o-QaMCslE-5">
          <mxGeometry width="50" height="50" relative="1" as="geometry">
            <mxPoint x="390" y="280" as="sourcePoint" />
            <mxPoint x="760" y="240" as="targetPoint" />
            <Array as="points" />
          </mxGeometry>
        </mxCell>
        <mxCell id="CdlXuI5yFP7o-QaMCslE-11" value="Получить данные" style="edgeLabel;html=1;align=center;verticalAlign=middle;resizable=0;points=[];" vertex="1" connectable="0" parent="CdlXuI5yFP7o-QaMCslE-10">
          <mxGeometry relative="1" as="geometry">
            <mxPoint y="12" as="offset" />
          </mxGeometry>
        </mxCell>
        <mxCell id="CdlXuI5yFP7o-QaMCslE-12" value="" style="endArrow=classic;html=1;rounded=0;exitX=0;exitY=0.75;exitDx=0;exitDy=0;" edge="1" parent="1" source="CdlXuI5yFP7o-QaMCslE-3">
          <mxGeometry width="50" height="50" relative="1" as="geometry">
            <mxPoint x="100" y="240" as="sourcePoint" />
            <mxPoint x="90" y="240" as="targetPoint" />
            <Array as="points" />
          </mxGeometry>
        </mxCell>
        <mxCell id="CdlXuI5yFP7o-QaMCslE-13" value="Получить данные" style="edgeLabel;html=1;align=center;verticalAlign=middle;resizable=0;points=[];" vertex="1" connectable="0" parent="CdlXuI5yFP7o-QaMCslE-12">
          <mxGeometry relative="1" as="geometry">
            <mxPoint y="12" as="offset" />
          </mxGeometry>
        </mxCell>
        <mxCell id="CdlXuI5yFP7o-QaMCslE-14" value="сервер" style="rounded=1;whiteSpace=wrap;html=1;" vertex="1" parent="1">
          <mxGeometry x="390" y="207.5" width="90" height="45" as="geometry" />
        </mxCell>
        <mxCell id="CdlXuI5yFP7o-QaMCslE-15" value="" style="edgeStyle=orthogonalEdgeStyle;rounded=0;orthogonalLoop=1;jettySize=auto;html=1;" edge="1" parent="1">
          <mxGeometry relative="1" as="geometry">
            <mxPoint x="310" y="219" as="sourcePoint" />
            <mxPoint x="390" y="219" as="targetPoint" />
          </mxGeometry>
        </mxCell>
        <mxCell id="CdlXuI5yFP7o-QaMCslE-16" value="Отправить данные на сервер" style="edgeLabel;html=1;align=center;verticalAlign=middle;resizable=0;points=[];" vertex="1" connectable="0" parent="CdlXuI5yFP7o-QaMCslE-15">
          <mxGeometry relative="1" as="geometry">
            <mxPoint y="-35" as="offset" />
          </mxGeometry>
        </mxCell>
        <mxCell id="CdlXuI5yFP7o-QaMCslE-18" value="" style="edgeStyle=orthogonalEdgeStyle;rounded=0;orthogonalLoop=1;jettySize=auto;html=1;entryX=1;entryY=0.75;entryDx=0;entryDy=0;" edge="1" parent="1" target="CdlXuI5yFP7o-QaMCslE-3">
          <mxGeometry relative="1" as="geometry">
            <mxPoint x="390" y="240" as="sourcePoint" />
            <mxPoint x="400" y="229" as="targetPoint" />
          </mxGeometry>
        </mxCell>
        <mxCell id="CdlXuI5yFP7o-QaMCslE-19" value="Отправить данные начальнику" style="edgeLabel;html=1;align=center;verticalAlign=middle;resizable=0;points=[];" vertex="1" connectable="0" parent="CdlXuI5yFP7o-QaMCslE-18">
          <mxGeometry relative="1" as="geometry">
            <mxPoint y="21" as="offset" />
          </mxGeometry>
        </mxCell>
        <mxCell id="CdlXuI5yFP7o-QaMCslE-20" value="" style="edgeStyle=orthogonalEdgeStyle;rounded=0;orthogonalLoop=1;jettySize=auto;html=1;" edge="1" parent="1">
          <mxGeometry relative="1" as="geometry">
            <mxPoint x="480" y="220" as="sourcePoint" />
            <mxPoint x="550" y="220" as="targetPoint" />
          </mxGeometry>
        </mxCell>
        <mxCell id="CdlXuI5yFP7o-QaMCslE-21" value="Отправить данные подчинённому" style="edgeLabel;html=1;align=center;verticalAlign=middle;resizable=0;points=[];" vertex="1" connectable="0" parent="CdlXuI5yFP7o-QaMCslE-20">
          <mxGeometry relative="1" as="geometry">
            <mxPoint y="-25" as="offset" />
          </mxGeometry>
        </mxCell>
        <mxCell id="CdlXuI5yFP7o-QaMCslE-22" value="" style="edgeStyle=orthogonalEdgeStyle;rounded=0;orthogonalLoop=1;jettySize=auto;html=1;entryX=1;entryY=0.75;entryDx=0;entryDy=0;" edge="1" parent="1">
          <mxGeometry relative="1" as="geometry">
            <mxPoint x="550" y="240" as="sourcePoint" />
            <mxPoint x="480" y="240" as="targetPoint" />
          </mxGeometry>
        </mxCell>
        <mxCell id="CdlXuI5yFP7o-QaMCslE-23" value="Отправить данные на сервер" style="edgeLabel;html=1;align=center;verticalAlign=middle;resizable=0;points=[];" vertex="1" connectable="0" parent="CdlXuI5yFP7o-QaMCslE-22">
          <mxGeometry relative="1" as="geometry">
            <mxPoint y="30" as="offset" />
          </mxGeometry>
        </mxCell>
      </root>
    </mxGraphModel>
  </diagram>
</mxfile>
